# xmcd
#
# Track frame offsets:
#	150
#	17372
#	33216
#	48874
#	65718
#	81359
#	95213
#	110319
#	123887
#	140887
#	158061
#	175038
#	189058
#	205614
#	218059
#	233984
#	250369
#
# Disc length: 3583 seconds
#
# Revision: 1
# Processed by: cddbd v1.5.2PL0 Copyright (c) Steve Scherf et al.
# Submitted via: audiograbber 1.83.01
#
DISCID=e00dfd11
DTITLE=Various Artist - My Country Vol 3 - CD2
DYEAR=2011
DGENRE=Country
TTITLE0=Keith Urban - Somebody Like You
TTITLE1=Easton Corbin - Roll With It
TTITLE2=Blake Shelton - All About Tonight
TTITLE3=Martina McBride - Wrong Baby Wrong Baby Wrong
TTITLE4=Rodney Atkins - Farmer's Daughter
TTITLE5=Brooks and Dunn - Honky Tonk Stomp
TTITLE6=Jana Kramer - I Won't Give Up
TTITLE7=Carrie Underwood - Undo It
TTITLE8=Jason Jnes - Unlikely Angel
TTITLE9=Kellie Pickler - Best Days Of Your Life
TTITLE10=Ty Stone - American Style
TTITLE11=Tracy Adkins - Marry For Money
TTITLE12=Brett Eldredge - Raymond
TTITLE13=The Janedear - Wildflower
TTITLE14=Darius Rucker - History In The Making
TTITLE15=Ashley Gearing - What You Think About Us
TTITLE16=Craig Morgan - This Ain't Nothing
EXTD=
EXTT0=
EXTT1=
EXTT2=
EXTT3=
EXTT4=
EXTT5=
EXTT6=
EXTT7=
EXTT8=
EXTT9=
EXTT10=
EXTT11=
EXTT12=
EXTT13=
EXTT14=
EXTT15=
EXTT16=
PLAYORDER=
